<svg xmlns="http://www.w3.org/2000/svg" xmlns:xlink="http://www.w3.org/1999/xlink" contentStyleType="text/css" data-diagram-type="CLASS" height="906px" preserveAspectRatio="none" style="width:2605px;height:906px;background:#FFFFFF;" version="1.1" viewBox="0 0 2605 906" width="2605px" zoomAndPan="magnify"><?plantuml 1.2026.3beta6?><defs/><g><!--class era5_gam_weather.tree_features.TreeFeatureBuilder--><g class="entity" data-qualified-name="era5_gam_weather.tree_features.TreeFeatureBuilder" data-source-line="2" id="ent0002"><rect fill="#F1F1F1" height="162.0781" rx="2.5" ry="2.5" style="stroke:#181818;stroke-width:0.5;" width="404.8682" x="1378.73" y="319.42"/><ellipse cx="1509.4024" cy="335.42" fill="#ADD1B2" rx="11" ry="11" style="stroke:#181818;stroke-width:1;"/><path d="M1512.3711,341.0606 Q1511.793,341.3575 1511.1524,341.4981 Q1510.5117,341.6544 1509.8086,341.6544 Q1507.3086,341.6544 1505.9805,340.0138 Q1504.668,338.3575 1504.668,335.2325 Q1504.668,332.1075 1505.9805,330.4513 Q1507.3086,328.795 1509.8086,328.795 Q1510.5117,328.795 1511.1524,328.9513 Q1511.8086,329.1075 1512.3711,329.4044 L1512.3711,332.1231 Q1511.7461,331.545 1511.1524,331.2794 Q1510.5586,330.9981 1509.9336,330.9981 Q1508.5899,330.9981 1507.9024,332.0763 Q1507.2149,333.1388 1507.2149,335.2325 Q1507.2149,337.3263 1507.9024,338.4044 Q1508.5899,339.4669 1509.9336,339.4669 Q1510.5586,339.4669 1511.1524,339.2013 Q1511.7461,338.92 1512.3711,338.3419 L1512.3711,341.0606 Z " fill="#000000"/><text fill="#000000" font-family="sans-serif" font-size="14" lengthAdjust="spacing" textLength="135.0234" x="1529.9024" y="340.2667">TreeFeatureBuilder</text><line style="stroke:#181818;stroke-width:0.5;" x1="1379.73" x2="1782.5982" y1="351.42" y2="351.42"/><text fill="#000000" font-family="sans-serif" font-size="14" lengthAdjust="spacing" textLength="42.8408" x="1384.73" y="368.4151">config</text><text fill="#000000" font-family="sans-serif" font-size="14" lengthAdjust="spacing" textLength="172.4023" x="1384.73" y="384.712">feature_names : List[str]</text><line style="stroke:#181818;stroke-width:0.5;" x1="1379.73" x2="1782.5982" y1="392.0138" y2="392.0138"/><text fill="#000000" font-family="sans-serif" font-size="14" lengthAdjust="spacing" textLength="293.6445" x="1384.73" y="409.0089">__init__(config: TreeFeatureConfig | None)</text><text fill="#000000" font-family="sans-serif" font-size="14" lengthAdjust="spacing" textLength="243.8174" x="1384.73" y="425.3057">_build_feature_names() -&gt; List[str]</text><text fill="#000000" font-family="sans-serif" font-size="14" lengthAdjust="spacing" textLength="132.3164" x="1384.73" y="441.6026">metadata() -&gt; Dict</text><text fill="#000000" font-family="sans-serif" font-size="14" lengthAdjust="spacing" textLength="158.6211" x="1384.73" y="457.8995">metadata_json() -&gt; str</text><text fill="#000000" font-family="sans-serif" font-size="14" lengthAdjust="spacing" textLength="392.8682" x="1384.73" y="474.1964">transform(features: Dict[str, np.ndarray]) -&gt; np.ndarray</text></g><!--class era5_gam_weather.tree_features.TreeFeatureConfig--><g class="entity" data-qualified-name="era5_gam_weather.tree_features.TreeFeatureConfig" data-source-line="11" id="ent0003"><rect fill="#F1F1F1" height="178.375" rx="2.5" ry="2.5" style="stroke:#181818;stroke-width:0.5;" width="1358.6387" x="1231.85" y="688.87"/><ellipse cx="1841.7045" cy="704.87" fill="#ADD1B2" rx="11" ry="11" style="stroke:#181818;stroke-width:1;"/><path d="M1844.6732,710.5106 Q1844.0951,710.8075 1843.4545,710.9481 Q1842.8139,711.1044 1842.1107,711.1044 Q1839.6107,711.1044 1838.2826,709.4638 Q1836.9701,707.8075 1836.9701,704.6825 Q1836.9701,701.5575 1838.2826,699.9013 Q1839.6107,698.245 1842.1107,698.245 Q1842.8139,698.245 1843.4545,698.4013 Q1844.1107,698.5575 1844.6732,698.8544 L1844.6732,701.5731 Q1844.0482,700.995 1843.4545,700.7294 Q1842.8607,700.4481 1842.2357,700.4481 Q1840.892,700.4481 1840.2045,701.5263 Q1839.517,702.5888 1839.517,704.6825 Q1839.517,706.7763 1840.2045,707.8544 Q1840.892,708.9169 1842.2357,708.9169 Q1842.8607,708.9169 1843.4545,708.6513 Q1844.0482,708.37 1844.6732,707.7919 L1844.6732,710.5106 Z " fill="#000000"/><text fill="#000000" font-family="sans-serif" font-size="14" lengthAdjust="spacing" textLength="130.4297" x="1862.2045" y="709.7167">TreeFeatureConfig</text><line style="stroke:#181818;stroke-width:0.5;" x1="1232.85" x2="2589.4887" y1="720.87" y2="720.87"/><text fill="#000000" font-family="sans-serif" font-size="14" lengthAdjust="spacing" textLength="159.7012" x="1237.85" y="737.8651">annual_harmonics : int</text><text fill="#000000" font-family="sans-serif" font-size="14" lengthAdjust="spacing" textLength="283.876" x="1237.85" y="754.162">include_altitude_directional_terms : bool</text><text fill="#000000" font-family="sans-serif" font-size="14" lengthAdjust="spacing" textLength="246.3125" x="1237.85" y="770.4589">include_altitude_polynomials : bool</text><text fill="#000000" font-family="sans-serif" font-size="14" lengthAdjust="spacing" textLength="125.166" x="1237.85" y="786.7557">include_xyz : bool</text><text fill="#000000" font-family="sans-serif" font-size="14" lengthAdjust="spacing" textLength="183.7227" x="1237.85" y="803.0526">local_hour_harmonics : int</text><text fill="#000000" font-family="sans-serif" font-size="14" lengthAdjust="spacing" textLength="173.1611" x="1237.85" y="819.3495">utc_hour_harmonics : int</text><line style="stroke:#181818;stroke-width:0.5;" x1="1232.85" x2="2589.4887" y1="826.6513" y2="826.6513"/><text fill="#000000" font-family="sans-serif" font-size="14" lengthAdjust="spacing" textLength="1346.6387" x="1237.85" y="843.6464">__init__(self, annual_harmonics: int, utc_hour_harmonics: int, local_hour_harmonics: int, include_xyz: bool, include_altitude_polynomials: bool, include_altitude_directional_terms: bool) -&gt; None</text><text fill="#000000" font-family="sans-serif" font-size="14" lengthAdjust="spacing" textLength="111.4805" x="1237.85" y="859.9432">to_dict() -&gt; Dict</text></g><!--class era5_gam_weather.prediction_service.WeatherPredictionService--><g class="entity" data-qualified-name="era5_gam_weather.prediction_service.WeatherPredictionService" data-source-line="21" id="ent0004"><rect fill="#F1F1F1" height="373.9375" rx="2.5" ry="2.5" style="stroke:#181818;stroke-width:0.5;" width="606.0225" x="299.16" y="213.49"/><ellipse cx="507.1161" cy="229.49" fill="#ADD1B2" rx="11" ry="11" style="stroke:#181818;stroke-width:1;"/><path d="M510.0848,235.1306 Q509.5067,235.4275 508.8661,235.5681 Q508.2254,235.7244 507.5223,235.7244 Q505.0223,235.7244 503.6942,234.0838 Q502.3817,232.4275 502.3817,229.3025 Q502.3817,226.1775 503.6942,224.5213 Q505.0223,222.865 507.5223,222.865 Q508.2254,222.865 508.8661,223.0213 Q509.5223,223.1775 510.0848,223.4744 L510.0848,226.1931 Q509.4598,225.615 508.8661,225.3494 Q508.2723,225.0681 507.6473,225.0681 Q506.3036,225.0681 505.6161,226.1463 Q504.9286,227.2088 504.9286,229.3025 Q504.9286,231.3963 505.6161,232.4744 Q506.3036,233.5369 507.6473,233.5369 Q508.2723,233.5369 508.8661,233.2713 Q509.4598,232.99 510.0848,232.4119 L510.0848,235.1306 Z " fill="#000000"/><text fill="#000000" font-family="sans-serif" font-size="14" lengthAdjust="spacing" textLength="181.6104" x="527.6161" y="234.3367">WeatherPredictionService</text><line style="stroke:#181818;stroke-width:0.5;" x1="300.16" x2="904.1825" y1="245.49" y2="245.49"/><text fill="#000000" font-family="sans-serif" font-size="14" lengthAdjust="spacing" textLength="120.9414" x="305.16" y="262.4851">artifact_dir : Path</text><text fill="#000000" font-family="sans-serif" font-size="14" lengthAdjust="spacing" textLength="111.9111" x="305.16" y="278.782">data_root : Path</text><text fill="#000000" font-family="sans-serif" font-size="14" lengthAdjust="spacing" textLength="197.7979" x="305.16" y="295.0789">default_model_loaded : bool</text><text fill="#000000" font-family="sans-serif" font-size="14" lengthAdjust="spacing" textLength="119.3623" x="305.16" y="311.3757">default_year : int</text><text fill="#000000" font-family="sans-serif" font-size="14" lengthAdjust="spacing" textLength="311.9307" x="305.16" y="327.6726">model_cache : Dict[str, WeatherTreeBundle]</text><text fill="#000000" font-family="sans-serif" font-size="14" lengthAdjust="spacing" textLength="161.5605" x="305.16" y="343.9695">model_candidates : list</text><text fill="#000000" font-family="sans-serif" font-size="14" lengthAdjust="spacing" textLength="84.2734" x="305.16" y="360.2664">project_root</text><text fill="#000000" font-family="sans-serif" font-size="14" lengthAdjust="spacing" textLength="51.0781" x="305.16" y="376.5632">this_dir</text><line style="stroke:#181818;stroke-width:0.5;" x1="300.16" x2="904.1825" y1="383.865" y2="383.865"/><text fill="#000000" font-family="sans-serif" font-size="14" lengthAdjust="spacing" textLength="532.2734" x="305.16" y="400.8601">__init__(data_root: Optional[str], artifact_dir: Optional[str], default_year: int)</text><text fill="#000000" font-family="sans-serif" font-size="14" lengthAdjust="spacing" textLength="475.2344" x="305.16" y="417.157">_date_from_year_and_day(year: int, day_of_year: float) -&gt; datetime</text><text fill="#000000" font-family="sans-serif" font-size="14" lengthAdjust="spacing" textLength="266" x="305.16" y="433.4539">_find_project_root(start: Path) -&gt; Path</text><text fill="#000000" font-family="sans-serif" font-size="14" lengthAdjust="spacing" textLength="336.54" x="305.16" y="449.7507">_load_model(path: Path) -&gt; WeatherTreeBundle</text><text fill="#000000" font-family="sans-serif" font-size="14" lengthAdjust="spacing" textLength="594.0225" x="305.16" y="466.0476">_predict_model_batch(points: List[PredictRequest]) -&gt; Tuple[List[Dict[str, float]], str]</text><text fill="#000000" font-family="sans-serif" font-size="14" lengthAdjust="spacing" textLength="478.2217" x="305.16" y="482.3445">batch_predict(points: List[PredictRequest]) -&gt; List[PredictResponse]</text><text fill="#000000" font-family="sans-serif" font-size="14" lengthAdjust="spacing" textLength="546.6768" x="305.16" y="498.6414">choose_model(year: int, day_of_year: float) -&gt; Tuple[WeatherTreeBundle, str]</text><text fill="#000000" font-family="sans-serif" font-size="14" lengthAdjust="spacing" textLength="159.1611" x="305.16" y="514.9382">health() -&gt; ServiceInfo</text><text fill="#000000" font-family="sans-serif" font-size="14" lengthAdjust="spacing" textLength="341.1611" x="305.16" y="531.2351">predict(req: PredictRequest) -&gt; PredictResponse</text><text fill="#000000" font-family="sans-serif" font-size="14" lengthAdjust="spacing" textLength="454.3506" x="305.16" y="547.532">predict_exact(req: PredictRequest) -&gt; Tuple[Dict[str, float], Dict]</text><text fill="#000000" font-family="sans-serif" font-size="14" lengthAdjust="spacing" textLength="477.4014" x="305.16" y="563.8289">predict_model(req: PredictRequest) -&gt; Tuple[Dict[str, float], str, str]</text><text fill="#000000" font-family="sans-serif" font-size="14" lengthAdjust="spacing" textLength="152.1611" x="305.16" y="580.1257">warm_start() -&gt; None</text></g><!--class era5_gam_weather.tree_model.WeatherTreeBundle--><g class="entity" data-qualified-name="era5_gam_weather.tree_model.WeatherTreeBundle" data-source-line="43" id="ent0005"><rect fill="#F1F1F1" height="227.2656" rx="2.5" ry="2.5" style="stroke:#181818;stroke-width:0.5;" width="1190.3379" x="7" y="664.42"/><ellipse cx="527.8984" cy="680.42" fill="#ADD1B2" rx="11" ry="11" style="stroke:#181818;stroke-width:1;"/><path d="M530.8672,686.0606 Q530.2891,686.3575 529.6484,686.4981 Q529.0078,686.6544 528.3047,686.6544 Q525.8047,686.6544 524.4766,685.0138 Q523.1641,683.3575 523.1641,680.2325 Q523.1641,677.1075 524.4766,675.4513 Q525.8047,673.795 528.3047,673.795 Q529.0078,673.795 529.6484,673.9513 Q530.3047,674.1075 530.8672,674.4044 L530.8672,677.1231 Q530.2422,676.545 529.6484,676.2794 Q529.0547,675.9981 528.4297,675.9981 Q527.0859,675.9981 526.3984,677.0763 Q525.7109,678.1388 525.7109,680.2325 Q525.7109,682.3263 526.3984,683.4044 Q527.0859,684.4669 528.4297,684.4669 Q529.0547,684.4669 529.6484,684.2013 Q530.2422,683.92 530.8672,683.3419 L530.8672,686.0606 Z " fill="#000000"/><text fill="#000000" font-family="sans-serif" font-size="14" lengthAdjust="spacing" textLength="140.041" x="548.3984" y="685.2667">WeatherTreeBundle</text><line style="stroke:#181818;stroke-width:0.5;" x1="8" x2="1196.3379" y1="696.42" y2="696.42"/><text fill="#000000" font-family="sans-serif" font-size="14" lengthAdjust="spacing" textLength="106.6475" x="13" y="713.4151">feature_builder</text><text fill="#000000" font-family="sans-serif" font-size="14" lengthAdjust="spacing" textLength="100.7275" x="13" y="729.712">model_configs</text><text fill="#000000" font-family="sans-serif" font-size="14" lengthAdjust="spacing" textLength="350.5332" x="13" y="746.0089">models : Dict[str, HistGradientBoostingRegressor]</text><text fill="#000000" font-family="sans-serif" font-size="14" lengthAdjust="spacing" textLength="146.1797" x="13" y="762.3057">target_names : tuple</text><line style="stroke:#181818;stroke-width:0.5;" x1="8" x2="1196.3379" y1="769.6075" y2="769.6075"/><text fill="#000000" font-family="sans-serif" font-size="14" lengthAdjust="spacing" textLength="1178.3379" x="13" y="786.6026">__init__(feature_builder: TreeFeatureBuilder, models: Dict[str, HistGradientBoostingRegressor], model_configs: Dict[str, Dict] | None, target_names: Iterable[str] | None)</text><text fill="#000000" font-family="sans-serif" font-size="14" lengthAdjust="spacing" textLength="124.0996" x="13" y="802.8995">describe() -&gt; Dict</text><text fill="#000000" font-family="sans-serif" font-size="14" lengthAdjust="spacing" textLength="599.7236" x="13" y="819.1964">evaluate(features: Dict[str, np.ndarray], targets: Dict[str, np.ndarray]) -&gt; EvalMetrics</text><text fill="#000000" font-family="sans-serif" font-size="14" lengthAdjust="spacing" textLength="273.7998" x="13" y="835.4932">load(path: str) -&gt; 'WeatherTreeBundle'</text><text fill="#000000" font-family="sans-serif" font-size="14" lengthAdjust="spacing" textLength="439.4277" x="13" y="851.7901">predict(features: Dict[str, np.ndarray]) -&gt; Dict[str, np.ndarray]</text><text fill="#000000" font-family="sans-serif" font-size="14" lengthAdjust="spacing" textLength="714.4854" x="13" y="868.087">predict_one(lat: float, lon: float, altitude_m: float, day_of_year: float, utc_hour: float) -&gt; Dict[str, float]</text><text fill="#000000" font-family="sans-serif" font-size="14" lengthAdjust="spacing" textLength="165.4365" x="13" y="884.3839">save(path: str) -&gt; None</text></g><!--class era5_gam_weather.tree_model.WeatherTreeTrainer--><g class="entity" data-qualified-name="era5_gam_weather.tree_model.WeatherTreeTrainer" data-source-line="56" id="ent0006"><rect fill="#F1F1F1" height="129.4844" rx="2.5" ry="2.5" style="stroke:#181818;stroke-width:0.5;" width="1089.5693" x="1036.38" y="7"/><ellipse cx="1506.255" cy="23" fill="#ADD1B2" rx="11" ry="11" style="stroke:#181818;stroke-width:1;"/><path d="M1509.2238,28.6406 Q1508.6456,28.9375 1508.005,29.0781 Q1507.3644,29.2344 1506.6613,29.2344 Q1504.1613,29.2344 1502.8331,27.5938 Q1501.5206,25.9375 1501.5206,22.8125 Q1501.5206,19.6875 1502.8331,18.0313 Q1504.1613,16.375 1506.6613,16.375 Q1507.3644,16.375 1508.005,16.5313 Q1508.6613,16.6875 1509.2238,16.9844 L1509.2238,19.7031 Q1508.5988,19.125 1508.005,18.8594 Q1507.4113,18.5781 1506.7863,18.5781 Q1505.4425,18.5781 1504.755,19.6563 Q1504.0675,20.7188 1504.0675,22.8125 Q1504.0675,24.9063 1504.755,25.9844 Q1505.4425,27.0469 1506.7863,27.0469 Q1507.4113,27.0469 1508.005,26.7813 Q1508.5988,26.5 1509.2238,25.9219 L1509.2238,28.6406 Z " fill="#000000"/><text fill="#000000" font-family="sans-serif" font-size="14" lengthAdjust="spacing" textLength="141.3193" x="1526.755" y="27.8467">WeatherTreeTrainer</text><line style="stroke:#181818;stroke-width:0.5;" x1="1037.38" x2="2124.9493" y1="39" y2="39"/><text fill="#000000" font-family="sans-serif" font-size="14" lengthAdjust="spacing" textLength="106.6475" x="1042.38" y="55.9951">feature_builder</text><text fill="#000000" font-family="sans-serif" font-size="14" lengthAdjust="spacing" textLength="140.3076" x="1042.38" y="72.292">model_configs : dict</text><text fill="#000000" font-family="sans-serif" font-size="14" lengthAdjust="spacing" textLength="146.1797" x="1042.38" y="88.5889">target_names : tuple</text><line style="stroke:#181818;stroke-width:0.5;" x1="1037.38" x2="2124.9493" y1="95.8906" y2="95.8906"/><text fill="#000000" font-family="sans-serif" font-size="14" lengthAdjust="spacing" textLength="873.4961" x="1042.38" y="112.8857">__init__(feature_builder: TreeFeatureBuilder | None, model_configs: Dict[str, Dict] | None, target_names: Iterable[str] | None)</text><text fill="#000000" font-family="sans-serif" font-size="14" lengthAdjust="spacing" textLength="1077.5693" x="1042.38" y="129.1826">fit(features: Dict[str, np.ndarray], targets: Dict[str, np.ndarray], sample_weight: np.ndarray | Dict[str, np.ndarray | None] | None) -&gt; 'WeatherTreeBundle'</text></g><!--link era5_gam_weather.tree_model.WeatherTreeTrainer to era5_gam_weather.tree_features.TreeFeatureBuilder--><g class="link" data-entity-1="ent0006" data-entity-2="ent0002" data-link-type="dependency" data-source-line="63" id="lnk7"><path codeLine="63" d="M1581.17,136.9 C1581.17,189.03 1581.17,256.84 1581.17,312.94" fill="none" id="era5_gam_weather.tree_model.WeatherTreeTrainer-to-era5_gam_weather.tree_features.TreeFeatureBuilder" style="stroke:#181818;stroke-width:1;"/><polygon fill="#181818" points="1581.17,318.94,1585.17,309.94,1581.17,313.94,1577.17,309.94,1581.17,318.94" style="stroke:#181818;stroke-width:1;"/><text fill="#000000" font-family="sans-serif" font-size="13" lengthAdjust="spacing" textLength="99.0298" x="1582.17" y="179.5569">feature_builder</text></g><!--link era5_gam_weather.tree_features.TreeFeatureBuilder to era5_gam_weather.tree_features.TreeFeatureConfig--><g class="link" data-entity-1="ent0002" data-entity-2="ent0003" data-link-type="dependency" data-source-line="64" id="lnk8"><path codeLine="64" d="M1651.56,481.57 C1704.94,542.33 1774.3096,621.2928 1829.4296,684.0228" fill="none" id="era5_gam_weather.tree_features.TreeFeatureBuilder-to-era5_gam_weather.tree_features.TreeFeatureConfig" style="stroke:#181818;stroke-width:1;"/><polygon fill="#181818" points="1833.39,688.53,1830.4542,679.1289,1830.0896,684.774,1824.4445,684.4095,1833.39,688.53" style="stroke:#181818;stroke-width:1;"/><text fill="#000000" font-family="sans-serif" font-size="13" lengthAdjust="spacing" textLength="39.7808" x="1786.17" y="630.4869">config</text></g><!--link era5_gam_weather.prediction_service.WeatherPredictionService to era5_gam_weather.tree_model.WeatherTreeBundle--><g class="link" data-entity-1="ent0004" data-entity-2="ent0005" data-link-type="dependency" data-source-line="65" id="lnk9"><path codeLine="65" d="M602.17,587.88 C602.17,613.87 602.17,633.89 602.17,657.95" fill="none" id="era5_gam_weather.prediction_service.WeatherPredictionService-to-era5_gam_weather.tree_model.WeatherTreeBundle" style="stroke:#181818;stroke-width:1;"/><polygon fill="#181818" points="602.17,663.95,606.17,654.95,602.17,658.95,598.17,654.95,602.17,663.95" style="stroke:#181818;stroke-width:1;"/><text fill="#000000" font-family="sans-serif" font-size="13" lengthAdjust="spacing" textLength="85.4775" x="603.17" y="630.4869">model_cache</text></g><!--link era5_gam_weather.tree_features.TreeFeatureBuilder to era5_gam_weather.tree_model.WeatherTreeBundle--><g class="link" data-entity-1="ent0002" data-entity-2="ent0005" data-link-type="aggregation" data-source-line="66" id="lnk10"><path codeLine="66" d="M1378.32,479.28 C1239.14,532.68 1063.4337,600.0916 907.9037,659.7616" fill="none" id="era5_gam_weather.tree_features.TreeFeatureBuilder-to-era5_gam_weather.tree_model.WeatherTreeBundle" style="stroke:#181818;stroke-width:1;"/><polygon fill="none" points="896.7,664.06,903.7347,665.6454,907.9037,659.7616,900.8691,658.1762,896.7,664.06" style="stroke:#181818;stroke-width:1;"/><text fill="#000000" font-family="sans-serif" font-size="13" lengthAdjust="spacing" textLength="99.0298" x="1005.17" y="630.4869">feature_builder</text></g><?plantuml-src hLTBazCu4BxFhr1nmLIPtFQImnvcdrInGC5KxO5AgJfsEn4bIqQI1xB0Vz_M8xOSEva9S8lLNtT__L8h5XrJqABjeC9ts841fmrJMk5D9S5QzkJE8Fw9u7g3jxsGDPed32n30x_m7RJy4ydsQ5QESBo9GBkQQx4lDunLMZLYHpyIa0VdRCrU2klUMsSs9EDSAE4uBo9wpJ9ZluKZzfMz8ehFF7ZhpVE9lU8PU_xhn6IB3cfm42M_YyfbX_o3rIfA24u2Pq3PHfksECQp3ZhUMibKjr8r60E7JT0Pls--BIGjChuoPobCdp9GgWV9zs1QhKJbaoMKfozK9ViQEKWddFzH2uEL4reHtA5fFNIhjLp2TbeUb6u5o0NKvyD_uw7KbNUlUxF0eNVLET5GHOkoAMTX15YvO209bjmcKKOpiYmlndSMCyjNH8QY-lRodQ09LRciROOI_njh-CQWHv2LTsZkHONBbUu66BSHjpfd85RTED50vJn9IkaRWj9fw5QZjSkEi85UEjxg6YMN6cgin-8TfGS4CrGcGYkeziZonaw4V1lUzggMkCd0gXRaFSogfC4YIMVq1yfVuEDJjHVMiyrBF_1TizTTp7IOo78ItqoOimwamw1xzxmnkWtdd1ZHqQ4OGAG71wwRfDPGBboecrTqelNrv8qWjPnvOHrnYUaCw9JNaCgOrQAZemmnovE7fmAdEcp1LVkYqqJBfiijrVajVkpHkdXrtFMTnFT1F9OX4DzG6jBT5MmTxJziSogmdLOs5BBQQsqnHVHmqYArMQW3gptI7EtZOAJ6VQ4Q7VeYCZNuaP8sOHWJFEKsQd3y31Vq8gFJF9MXWJUPbHZXjLR2Huhj4rquFFH5CLu6fuC_vkJ2tHwuh6OQOSIFAsiRz-CuQ-7kjyTlEvdHlwcwVnce1IftImLrGktUuexMXzM1Ex7UeHlsglFXvYDvudMoNDEcBfFZn_ijfzHpnL2TjA_B2RirUq6tBcof73xlsKwlqLP6R76ohV4UP4-J_D1EFZgvkBF_86F_e3EqLCAAWpeDEQ43uEciPa-prdxCis1HahKfnLf8S6dc_C9Jm-zXHRN3qNnCn-MPp-rfPvD72_Tu4jxPZhup8DJ59zwifPFAOtgQ6hAErVm9RJeqrK_jlKQu7-qmkaUWfNWeRsAtfmgFCdAqf9By3ppETU2tcojhyfmCNVzINy_gUBsDwpodz-xw-0VXXzvFvrsVkuxN-PlekuBLLtiyIV7_?></g></svg>