<svg xmlns="http://www.w3.org/2000/svg" xmlns:xlink="http://www.w3.org/1999/xlink" contentStyleType="text/css" data-diagram-type="CLASS" height="488px" preserveAspectRatio="none" style="width:1198px;height:488px;background:#FFFFFF;" version="1.1" viewBox="0 0 1198 488" width="1198px" zoomAndPan="magnify"><?plantuml 1.2026.3beta6?><defs/><g><!--class modules.impact.impact.ImpactResult--><g class="entity" data-qualified-name="modules.impact.impact.ImpactResult" data-source-line="2" id="ent0002"><rect fill="#F1F1F1" height="129.4844" rx="2.5" ry="2.5" style="stroke:#181818;stroke-width:0.5;" width="807.7168" x="7" y="15.14"/><ellipse cx="360.4556" cy="31.14" fill="#ADD1B2" rx="11" ry="11" style="stroke:#181818;stroke-width:1;"/><path d="M363.4243,36.7806 Q362.8462,37.0775 362.2056,37.2181 Q361.5649,37.3744 360.8618,37.3744 Q358.3618,37.3744 357.0337,35.7337 Q355.7212,34.0775 355.7212,30.9525 Q355.7212,27.8275 357.0337,26.1712 Q358.3618,24.515 360.8618,24.515 Q361.5649,24.515 362.2056,24.6712 Q362.8618,24.8275 363.4243,25.1244 L363.4243,27.8431 Q362.7993,27.265 362.2056,26.9994 Q361.6118,26.7181 360.9868,26.7181 Q359.6431,26.7181 358.9556,27.7962 Q358.2681,28.8587 358.2681,30.9525 Q358.2681,33.0462 358.9556,34.1244 Q359.6431,35.1869 360.9868,35.1869 Q361.6118,35.1869 362.2056,34.9212 Q362.7993,34.64 363.4243,34.0619 L363.4243,36.7806 Z " fill="#000000"/><text fill="#000000" font-family="sans-serif" font-size="14" lengthAdjust="spacing" textLength="92.3057" x="380.9556" y="35.9867">ImpactResult</text><line style="stroke:#181818;stroke-width:0.5;" x1="8" x2="813.7168" y1="47.14" y2="47.14"/><text fill="#000000" font-family="sans-serif" font-size="14" lengthAdjust="spacing" textLength="110.7832" x="13" y="64.1351">index_after : int</text><text fill="#000000" font-family="sans-serif" font-size="14" lengthAdjust="spacing" textLength="122.7803" x="13" y="80.432">index_before : int</text><text fill="#000000" font-family="sans-serif" font-size="14" lengthAdjust="spacing" textLength="195.207" x="13" y="96.7289">interpolation_fraction : float</text><text fill="#000000" font-family="sans-serif" font-size="14" lengthAdjust="spacing" textLength="111.7129" x="13" y="113.0257">state_at_impact</text><line style="stroke:#181818;stroke-width:0.5;" x1="8" x2="813.7168" y1="120.3275" y2="120.3275"/><text fill="#000000" font-family="sans-serif" font-size="14" lengthAdjust="spacing" textLength="795.7168" x="13" y="137.3226">__init__(self, state_at_impact: State3DOF, index_before: int, index_after: int, interpolation_fraction: float) -&gt; None</text></g><!--class modules.impact.simulated_impact.SimulationOutput--><g class="entity" data-qualified-name="modules.impact.simulated_impact.SimulationOutput" data-source-line="9" id="ent0003"><rect fill="#F1F1F1" height="145.7813" rx="2.5" ry="2.5" style="stroke:#181818;stroke-width:0.5;" width="334.2734" x="849.72" y="7"/><ellipse cx="951.0047" cy="23" fill="#ADD1B2" rx="11" ry="11" style="stroke:#181818;stroke-width:1;"/><path d="M953.9734,28.6406 Q953.3953,28.9375 952.7547,29.0781 Q952.114,29.2344 951.4109,29.2344 Q948.9109,29.2344 947.5828,27.5938 Q946.2703,25.9375 946.2703,22.8125 Q946.2703,19.6875 947.5828,18.0313 Q948.9109,16.375 951.4109,16.375 Q952.114,16.375 952.7547,16.5313 Q953.4109,16.6875 953.9734,16.9844 L953.9734,19.7031 Q953.3484,19.125 952.7547,18.8594 Q952.1609,18.5781 951.5359,18.5781 Q950.1922,18.5781 949.5047,19.6563 Q948.8172,20.7188 948.8172,22.8125 Q948.8172,24.9063 949.5047,25.9844 Q950.1922,27.0469 951.5359,27.0469 Q952.1609,27.0469 952.7547,26.7813 Q953.3484,26.5 953.9734,25.9219 L953.9734,28.6406 Z " fill="#000000"/><text fill="#000000" font-family="sans-serif" font-size="14" lengthAdjust="spacing" textLength="123.2041" x="971.5047" y="27.8467">SimulationOutput</text><line style="stroke:#181818;stroke-width:0.5;" x1="850.72" x2="1182.9934" y1="39" y2="39"/><text fill="#000000" font-family="sans-serif" font-size="14" lengthAdjust="spacing" textLength="264.7832" x="855.72" y="55.9951">environment : Dict[str, float | str | int]</text><text fill="#000000" font-family="sans-serif" font-size="14" lengthAdjust="spacing" textLength="48.1797" x="855.72" y="72.292">impact</text><text fill="#000000" font-family="sans-serif" font-size="14" lengthAdjust="spacing" textLength="141.0938" x="855.72" y="88.5889">physical_time : float</text><text fill="#000000" font-family="sans-serif" font-size="14" lengthAdjust="spacing" textLength="220.0625" x="855.72" y="104.8857">points_count : NotRequired[int]</text><text fill="#000000" font-family="sans-serif" font-size="14" lengthAdjust="spacing" textLength="154.1504" x="855.72" y="121.1826">raw_points_count : int</text><text fill="#000000" font-family="sans-serif" font-size="14" lengthAdjust="spacing" textLength="322.2734" x="855.72" y="137.4795">trajectory : NotRequired[List[TrajectoryPoint]]</text><line style="stroke:#181818;stroke-width:0.5;" x1="850.72" x2="1182.9934" y1="144.7813" y2="144.7813"/></g><!--class modules.state.state.State3DOF--><g class="entity" data-qualified-name="modules.state.state.State3DOF" data-source-line="17" id="ent0004"><rect fill="#F1F1F1" height="178.375" rx="2.5" ry="2.5" style="stroke:#181818;stroke-width:0.5;" width="550.8838" x="135.42" y="262.37"/><ellipse cx="368.7032" cy="278.37" fill="#ADD1B2" rx="11" ry="11" style="stroke:#181818;stroke-width:1;"/><path d="M371.672,284.0106 Q371.0938,284.3075 370.4532,284.4481 Q369.8126,284.6044 369.1095,284.6044 Q366.6095,284.6044 365.2813,282.9637 Q363.9688,281.3075 363.9688,278.1825 Q363.9688,275.0575 365.2813,273.4012 Q366.6095,271.745 369.1095,271.745 Q369.8126,271.745 370.4532,271.9012 Q371.1095,272.0575 371.672,272.3544 L371.672,275.0731 Q371.047,274.495 370.4532,274.2294 Q369.8595,273.9481 369.2345,273.9481 Q367.8907,273.9481 367.2032,275.0262 Q366.5157,276.0887 366.5157,278.1825 Q366.5157,280.2762 367.2032,281.3544 Q367.8907,282.4169 369.2345,282.4169 Q369.8595,282.4169 370.4532,282.1512 Q371.047,281.87 371.672,281.2919 L371.672,284.0106 Z " fill="#000000"/><text fill="#000000" font-family="sans-serif" font-size="14" lengthAdjust="spacing" textLength="75.8174" x="389.2032" y="283.2167">State3DOF</text><line style="stroke:#181818;stroke-width:0.5;" x1="136.42" x2="685.3038" y1="294.37" y2="294.37"/><text fill="#000000" font-family="sans-serif" font-size="14" lengthAdjust="spacing" textLength="53.9561" x="141.42" y="311.3651">q : float</text><text fill="#000000" font-family="sans-serif" font-size="14" lengthAdjust="spacing" textLength="82.1133" x="141.42" y="327.662">theta : float</text><text fill="#000000" font-family="sans-serif" font-size="14" lengthAdjust="spacing" textLength="61.6396" x="141.42" y="343.9589">vx : float</text><text fill="#000000" font-family="sans-serif" font-size="14" lengthAdjust="spacing" textLength="60.7031" x="141.42" y="360.2557">vz : float</text><text fill="#000000" font-family="sans-serif" font-size="14" lengthAdjust="spacing" textLength="53.3545" x="141.42" y="376.5526">x : float</text><text fill="#000000" font-family="sans-serif" font-size="14" lengthAdjust="spacing" textLength="52.418" x="141.42" y="392.8495">z : float</text><line style="stroke:#181818;stroke-width:0.5;" x1="136.42" x2="685.3038" y1="400.1512" y2="400.1512"/><text fill="#000000" font-family="sans-serif" font-size="14" lengthAdjust="spacing" textLength="538.8838" x="141.42" y="417.1464">__init__(self, x: float, z: float, vx: float, vz: float, theta: float, q: float) -&gt; None</text><text fill="#000000" font-family="sans-serif" font-size="14" lengthAdjust="spacing" textLength="378.1846" x="141.42" y="433.4432">as_tuple() -&gt; Tuple[float, float, float, float, float, float]</text></g><!--class modules.impact.simulated_impact.TrajectoryPoint--><g class="entity" data-qualified-name="modules.impact.simulated_impact.TrajectoryPoint" data-source-line="27" id="ent0005"><rect fill="#F1F1F1" height="243.5625" rx="2.5" ry="2.5" style="stroke:#181818;stroke-width:0.5;" width="215.4102" x="909.15" y="229.78"/><ellipse cx="959.3839" cy="245.78" fill="#ADD1B2" rx="11" ry="11" style="stroke:#181818;stroke-width:1;"/><path d="M962.3526,251.4206 Q961.7745,251.7175 961.1339,251.8581 Q960.4933,252.0144 959.7901,252.0144 Q957.2901,252.0144 955.962,250.3737 Q954.6495,248.7175 954.6495,245.5925 Q954.6495,242.4675 955.962,240.8112 Q957.2901,239.155 959.7901,239.155 Q960.4933,239.155 961.1339,239.3112 Q961.7901,239.4675 962.3526,239.7644 L962.3526,242.4831 Q961.7276,241.905 961.1339,241.6394 Q960.5401,241.3581 959.9151,241.3581 Q958.5714,241.3581 957.8839,242.4362 Q957.1964,243.4987 957.1964,245.5925 Q957.1964,247.6862 957.8839,248.7644 Q958.5714,249.8269 959.9151,249.8269 Q960.5401,249.8269 961.1339,249.5612 Q961.7276,249.28 962.3526,248.7019 L962.3526,251.4206 Z " fill="#000000"/><text fill="#000000" font-family="sans-serif" font-size="14" lengthAdjust="spacing" textLength="106.4424" x="979.8839" y="250.6267">TrajectoryPoint</text><line style="stroke:#181818;stroke-width:0.5;" x1="910.15" x2="1123.5602" y1="261.78" y2="261.78"/><text fill="#000000" font-family="sans-serif" font-size="14" lengthAdjust="spacing" textLength="63.0273" x="915.15" y="278.7751">alt : float</text><text fill="#000000" font-family="sans-serif" font-size="14" lengthAdjust="spacing" textLength="63.0273" x="915.15" y="295.072">lat : float</text><text fill="#000000" font-family="sans-serif" font-size="14" lengthAdjust="spacing" textLength="66.3975" x="915.15" y="311.3689">lon : float</text><text fill="#000000" font-family="sans-serif" font-size="14" lengthAdjust="spacing" textLength="130.1768" x="915.15" y="327.6657">pressure_Pa : float</text><text fill="#000000" font-family="sans-serif" font-size="14" lengthAdjust="spacing" textLength="149.5566" x="915.15" y="343.9626">temperature_K : float</text><text fill="#000000" font-family="sans-serif" font-size="14" lengthAdjust="spacing" textLength="82.1133" x="915.15" y="360.2595">theta : float</text><text fill="#000000" font-family="sans-serif" font-size="14" lengthAdjust="spacing" textLength="61.6396" x="915.15" y="376.5564">vx : float</text><text fill="#000000" font-family="sans-serif" font-size="14" lengthAdjust="spacing" textLength="60.7031" x="915.15" y="392.8532">vz : float</text><text fill="#000000" font-family="sans-serif" font-size="14" lengthAdjust="spacing" textLength="203.4102" x="915.15" y="409.1501">wind_along_track_mps : float</text><text fill="#000000" font-family="sans-serif" font-size="14" lengthAdjust="spacing" textLength="167.8359" x="915.15" y="425.447">wind_u_east_mps : float</text><text fill="#000000" font-family="sans-serif" font-size="14" lengthAdjust="spacing" textLength="174.8291" x="915.15" y="441.7439">wind_v_north_mps : float</text><text fill="#000000" font-family="sans-serif" font-size="14" lengthAdjust="spacing" textLength="174.1865" x="915.15" y="458.0407">wind_vertical_mps : float</text><line style="stroke:#181818;stroke-width:0.5;" x1="910.15" x2="1123.5602" y1="465.3425" y2="465.3425"/></g><!--link modules.impact.simulated_impact.SimulationOutput to modules.impact.simulated_impact.TrajectoryPoint--><g class="link" data-entity-1="ent0003" data-entity-2="ent0005" data-link-type="dependency" data-source-line="41" id="lnk6"><path codeLine="41" d="M1016.86,153.15 C1016.86,176.63 1016.86,197.37 1016.86,223.41" fill="none" id="modules.impact.simulated_impact.SimulationOutput-to-modules.impact.simulated_impact.TrajectoryPoint" style="stroke:#181818;stroke-width:1;"/><polygon fill="#181818" points="1016.86,229.41,1020.86,220.41,1016.86,224.41,1012.86,220.41,1016.86,229.41" style="stroke:#181818;stroke-width:1;"/><text fill="#000000" font-family="sans-serif" font-size="13" lengthAdjust="spacing" textLength="44.7383" x="1017.86" y="195.8469">impact</text></g><!--link modules.impact.impact.ImpactResult to modules.state.state.State3DOF--><g class="link" data-entity-1="ent0002" data-entity-2="ent0004" data-link-type="dependency" data-source-line="42" id="lnk7"><path codeLine="42" d="M410.86,144.8 C410.86,179.84 410.86,217.82 410.86,256.12" fill="none" id="modules.impact.impact.ImpactResult-to-modules.state.state.State3DOF" style="stroke:#181818;stroke-width:1;"/><polygon fill="#181818" points="410.86,262.12,414.86,253.12,410.86,257.12,406.86,253.12,410.86,262.12" style="stroke:#181818;stroke-width:1;"/><text fill="#000000" font-family="sans-serif" font-size="13" lengthAdjust="spacing" textLength="103.7334" x="411.86" y="195.8469">state_at_impact</text></g><?plantuml-src dLHDJzmm4Btlhx0uWHIuSDi39rIfQWM8vRPQZTpifElYs5vx71Oe_xqJvmDl6gdGI-APz-oPUJDsG196rXYSB765Jdf9rWjZ3IvABKCG9rzhnkWUGzHq8cGGjTr6ZU529M3uvJJnkX12cIqUG5Q4NYpPej7t0olhCNConLajILa3bUTZUC5mfQri2O4a8KY2BXHx09HH170QK5V5bB0KgzPnUNtxfJWAcI8MUMQZPow5FeCpSNubRbf5tWPDLggE7VasaekpkeIEWzi-gulffgGIcaPvQseqn1LVgvBMWNpHHHQ_kJJFNyvlqoerrEzspq6LKWEf6ZEbd6LcWDB6TDoDvORie_AuNVT7UFa44rRN1VBo5vRS_EV9nkygqFfXHE_QpPjDfiMWzP48gINzTsIaYlTPlhH3afdT77BZ9JDo8FTF9k7G8uLu6LVDkxDvzwRGexN_gzU2gm6AJkDfSZwqotLF_-SlqsSYtOT6PR8dwIOrPNKpFRUExelp64Bq27UvjeIrGxxUBV3jlthmn1S79CVw2JmjvIFKBapX22W3pI4D6EjfDmkXfpJEEVQs-FI5EkS-VLRQvN2hFl2ivUVF3_Xo-XRz0G00?></g></svg>